<svg xmlns="http://www.w3.org/2000/svg" width="705.026" height="528.583" viewBox="0 0 705.026 528.583"><defs><style>.a{fill:#32b5c6;}.b,.d,.f,.n,.o,.p,.t{fill:none;}.b,.d,.f,.p{stroke:#fff;}.b,.d,.f,.t{stroke-miterlimit:10;}.b{stroke-width:1.177px;}.c{fill:#4dd0e1;}.d{stroke-width:1.593px;}.e{fill:#60e3f4;}.f{stroke-width:1.494px;}.g{fill:#39306c;}.h{fill:#4b4583;}.i,.m{fill:#fff;}.i{opacity:0.74;}.j{fill:#e02d76;}.k{fill:#f7327a;}.l{fill:#221b4c;}.n,.o{stroke:#4b4583;}.n,.o,.p{stroke-linecap:round;stroke-linejoin:round;}.n{stroke-width:0.978px;}.o{stroke-width:0.684px;}.p{stroke-width:1.665px;}.q{fill:#dd3178;}.r{fill:#f4ae98;}.s{fill:#ffb99f;}.t{stroke:#f7327a;stroke-width:1.052px;}.u{fill:#47417f;}.v{fill:#5e5896;}</style></defs><g transform="translate(-343.512 -127.868)"><g transform="translate(828.227 357.791)"><g transform="translate(68.802)"><path class="a" d="M609.485,410.778c-19.947-3.514-41.537-61.655-4.39-81.137s49.674-29.8,57.437-75.178,34.176-23.837,28.227,2.72,33.706,23.257,41.981,35.924c14.337,21.949-17.376,25.456-35.536,37.949s14.25,21.043,1.36,42.185S643.5,416.768,609.485,410.778Z" transform="translate(-584.848 -228.116)"/><g transform="translate(22.596 86.289)"><path class="b" d="M594.7,361.558c1.853-2.179,39.6-65.463,62.426-95.82" transform="translate(-594.7 -265.738)"/><line class="b" y1="11.293" x2="48.619" transform="translate(20.593 51.572)"/><line class="b" y1="29.126" x2="0.998" transform="translate(40.355 2.825)"/></g></g><g transform="translate(0 52.179)"><path class="c" d="M654.519,410.5s-11.19-21.848,7.917-35.853S690,342.643,679.1,326.1s-38.887-6.229-50.72-14.137-6.745-24.83-16.447-43.133c-13-24.53-38.167-18.055-44.057-14.268s-16.323,15.36-2.665,37.614,3.592,30.057-7.28,47.522,8.181,24.257,39.108,30.156S633.3,413.741,633.3,413.741l21.215-3.241" transform="translate(-554.85 -250.866)"/><g transform="translate(18.782 23.891)"><path class="d" d="M630.367,418.982s4.644-82.4-62.926-157.7" transform="translate(-557.345 -261.282)"/><path class="d" d="M622.983,310.669s-17.621-24.261-59.944-20.1" transform="translate(-563.039 -224.019)"/><path class="d" d="M591.765,331.047s-8.663-34.912,26.738-46.2" transform="translate(-527.091 -230.801)"/></g></g><g transform="translate(95.872 104.306)"><path class="e" d="M667.424,369.814c35.424,8.959,36.282-21.91,14.578-39.123-13.566-10.761,14.131-16.5,24.855-26.963,18.431-17.977-11.126-40.573-26.456-24.828s-24.839,20.58-36.007,21.954-42.69,1.716-39.97,21.768c1.7,12.5-9.11,23.169-7.635,35.695C629.548,347.231,648.968,365.146,667.424,369.814Z" transform="translate(-596.651 -273.594)"/><g transform="translate(0.139 30.37)"><path class="f" d="M596.711,341.188s47.431-35.6,86.316-54.353" transform="translate(-596.711 -286.835)"/><line class="f" y1="27.305" x2="4.445" transform="translate(36.389 1.717)"/><line class="f" x2="50.303" y2="0.149" transform="translate(26.688 35.483)"/></g></g><g transform="translate(61.709 181.702)"><path class="g" d="M649.2,364.9H597.359l-12.067-51.812h75.971Z" transform="translate(-577.18 -299.897)"/><rect class="h" width="92.197" height="20.856"/></g></g><g transform="translate(406.427 378.399)"><path class="i" d="M418.587,404.62c3.69-9.144,12.562-11.911,16.9-20.165,7.773-14.773-5.3-18.582-6.853-28.4-2.066-13.071,7.108-11.894,11.846-19.855,5.569-9.358-3.858-20.431,1.924-29.318,14.371-22.092,37.763,2.177,53.006,7.282,9.337,3.128,23.307,4.443,30.656-1.5,9.7-7.842,19.376-26.011,9.1-36.5-14.479-14.78-9.172-22.353,6.486-26.094,6.931-1.656,10.105-6.938,2.413-12.97,11.69,16.892-27.3,1.507-34.238,12.97-4.819,7.961,1.124,12.663,2.8,18.782,4.287,15.658-6.472,29.133-28.913,13.452-12.9-9.016-11.816-25.075-25.5-29.165-12.793-3.823-27.665,7.635-32.369,23.009-4.656,15.213-10.181,23.016-26.578,21.284-19.482-2.055-34.507,10.016-25.793,27.451,7.725,15.456,29.121,6.674,39.97,15.537,12.043,9.835,8.3,23.378-7.284,36.085-4.839,3.945-12.28,9.835-10.362,16.555,1.243,4.36,9.02,11.282,14.027,11.463Z" transform="translate(-370.943 -237.101)"/><path class="j" d="M439.344,318.42h-4.163v-5.628a4.344,4.344,0,0,0-4.342-4.344H381.533a4.344,4.344,0,0,0-4.342,4.344v34.477a23.639,23.639,0,0,0,23.64,23.64h10.711a23.631,23.631,0,0,0,22.344-15.977h5.459a7.551,7.551,0,0,0,7.55-7.55V325.973A7.551,7.551,0,0,0,439.344,318.42Zm2.725,28.961a2.728,2.728,0,0,1-2.725,2.725H435a24.111,24.111,0,0,0,.186-2.837v-24.02h4.163a2.728,2.728,0,0,1,2.725,2.725Z" transform="translate(-362.862 -144.81)"/><path class="k" d="M428.851,320.693a31.822,31.822,0,0,0-2.5-12.245H381.533a4.344,4.344,0,0,0-4.342,4.344v34.477a23.519,23.519,0,0,0,2.991,11.5c.679.023,1.346.083,2.032.083C407.971,358.847,428.851,341.764,428.851,320.693Z" transform="translate(-362.862 -144.81)"/></g><g transform="translate(343.512 604.498)"><path class="g" d="M988.852,371.975H364.443a12.094,12.094,0,0,1-12.094-12.094h0a12.1,12.1,0,0,1,12.094-12.094H988.852a12.1,12.1,0,0,1,12.094,12.094h0A12.1,12.1,0,0,1,988.852,371.975Z" transform="translate(-332.081 -320.021)"/><path class="l" d="M1015.584,369.807H360.574a17.063,17.063,0,0,1-17.062-17.062h0a17.063,17.063,0,0,1,17.062-17.064h655.01a17.062,17.062,0,0,1,17.062,17.064h0A17.062,17.062,0,0,1,1015.584,369.807Z" transform="translate(-343.512 -335.681)"/></g><g transform="translate(865.284 235.362)"><circle class="h" cx="44.308" cy="44.308" r="44.308"/><circle class="m" cx="34.548" cy="34.548" r="34.548" transform="translate(9.76 9.76)"/><g transform="translate(44.308 23.535)"><line class="n" y1="20.773"/><line class="n" x2="12.7" y2="12.7" transform="translate(0 20.773)"/></g><g transform="translate(13.671 13.658)"><line class="o" y1="4.101" transform="translate(30.635 57.19)"/><line class="o" x1="2.051" y1="3.558" transform="translate(43.902 53.632)"/><line class="o" x1="3.557" y1="2.051" transform="translate(53.612 43.923)"/><line class="o" x1="4.122" transform="translate(57.169 30.656)"/><line class="o" x1="3.536" y2="2.051" transform="translate(53.632 15.338)"/><line class="o" x1="2.051" y2="3.536" transform="translate(43.902 4.122)"/><line class="o" y1="4.122" transform="translate(30.635)"/><line class="o" x1="2.051" y1="3.557" transform="translate(15.317 4.122)"/><line class="o" x1="3.536" y1="2.051" transform="translate(4.101 15.338)"/><line class="o" x1="4.101" transform="translate(0 30.656)"/><line class="o" x1="3.558" y2="2.051" transform="translate(4.101 43.923)"/><line class="o" x1="2.051" y2="3.558" transform="translate(15.317 53.632)"/></g><circle class="h" cx="2.005" cy="2.005" r="2.005" transform="translate(42.303 42.303)"/></g><g transform="translate(507.145 218.021)"><path class="k" d="M496.279,181.158a47.743,47.743,0,1,0-9.17,74.678,7.083,7.083,0,0,1,5.665-.686l12.071,3.594a1.208,1.208,0,0,0,1.5-1.5l-3.592-12.073a7.09,7.09,0,0,1,.693-5.679A47.747,47.747,0,0,0,496.279,181.158Z" transform="translate(-414.856 -167.175)"/><g transform="translate(20.645 26.855)"><line class="p" x2="54.108"/><line class="p" x2="12.976" transform="translate(41.131 13.922)"/><line class="p" x2="28.24" transform="translate(0 13.922)"/><line class="p" x2="29.367" transform="translate(24.74 27.844)"/><line class="p" x2="14.121" transform="translate(0 27.844)"/><line class="p" x2="12.977" transform="translate(41.131 41.767)"/><line class="p" x2="27.605" transform="translate(0 41.767)"/></g></g><g transform="translate(472.711 200.945)"><g transform="translate(165.846)"><path class="l" d="M496.534,213.436s-4.826-21.319,15.688-39.619,52.213-16.633,69.593-7.089c22.525,12.369,44.637,45.1,24.427,91.859s72.4,27.452,41.328,90.8S562.8,369,543.495,395.241s-86.139-42.564-29.043-90.667S500.857,256.674,496.534,213.436Z" transform="translate(-446.658 -159.73)"/><path class="q" d="M516.8,244.464c-23.436,9.988-42.839,69.378-44.651,196.078h50.506S553.345,228.889,516.8,244.464Z" transform="translate(-472.153 -51.182)"/><path class="k" d="M564.163,236.178c27.7-2.734,72.848,1.867,89.075,19.787,3.58,3.954,3.6,11.36,1.679,21.605-6.778,36.2-37.745,107.836-21.286,187.767h-144.2s13.677-62.46,6.034-82.169c-8.739-22.534-16.3-42.9-7.7-61.72,19.589-42.857,2.046-60.6,14.459-66.8C519.31,246.126,540.732,238.493,564.163,236.178Z" transform="translate(-456.852 -61.784)"/><path class="j" d="M582.6,315.358c-6.032,35-46.557,39.318-66.869,32.479,0,0,29.564,17.9,50.88,7.844,0,0,5.431,17.094-2.688,70.853h26.513s-.007-.108-.016-.275c-4.195-28.119-2.878-55.015.782-79.458a112.606,112.606,0,0,1,2.833-16.362l.039-.149c3.36-17.14,7.564-32.8,11.337-46.483a152.709,152.709,0,0,0,2.227-27.573S588.636,280.365,582.6,315.358Z" transform="translate(-415.78 -34.9)"/><path class="r" d="M597.838,314.762S572.65,345.7,560.469,337.321c-16.128-11.1-29.4-10.9-40.062-4.53-11.057,6.6-15.284,18.03-15.284,18.03h86.454l25.163-21.777Z" transform="translate(-429.504 40.812)"/><path class="k" d="M587.2,248.4s22.227,58.054,41.286,105.515c15.385,38.312-77.391,90.52-77.391,90.52L535.769,423.9,589.2,364.671l-32.679-68.905s-18.945-37.584,9.816-50.905C582.34,237.447,587.2,248.4,587.2,248.4Z" transform="translate(-389.862 -52.941)"/><path class="r" d="M555.027,211.118s-3.5,44.011,7.062,55.506c13.573,14.782-10.257,46.658-46.055,70.791,0,0-20.011-22.222-4.323-58.421s.482-56.646.482-56.646Z" transform="translate(-428.75 -93.257)"/><path class="s" d="M577.006,233.628c0,30.156-21.245,54.575-39.195,54.575s-40.376-20.055-43.394-57.16c-2.443-30.057,13.752-52.018,38.243-52.018S577.006,203.472,577.006,233.628Z" transform="translate(-443.668 -134.771)"/><path class="l" d="M515.814,179.767c-2.521,1.454-7.984,5-14.351,9.232-6.933,4.617-14.323,12.612-16.867,21.36-4.365,15.023,6.69,34.055,28.679,27.335s32.5-41.993,50.337-21.6c22.172,25.342,30.218,11.218,30.218,11.218s-4.447-31.55-26.915-45.75C554.873,173.948,536.731,167.7,515.814,179.767Z" transform="translate(-457.273 -142.575)"/><g transform="translate(44.19 27.626)"><path class="k" d="M551.4,208.143c0,9.837-5.814,17.812-12.988,17.812s-12.988-7.975-12.988-17.812,5.814-17.812,12.988-17.812S551.4,198.306,551.4,208.143Z" transform="translate(-447.44 -147.773)"/><path class="k" d="M541.511,172.775c-19.977-3.849-39.24,3.7-50.091,17.8a58.049,58.049,0,0,1,43.729-8.642c26.536,5.11,45.332,26.663,45.956,50.594a42.71,42.71,0,0,0,1.22-4.784C587.155,202.653,568.882,178.045,541.511,172.775Z" transform="translate(-491.42 -171.775)"/><g transform="translate(43.094 66.184)"><path class="t" d="M548.678,200.632S552.3,240.889,515.3,244.71" transform="translate(-503.63 -200.632)"/><path class="k" d="M519.459,225.461h-5.833a3.419,3.419,0,0,1-3.417-3.42h0a3.419,3.419,0,0,1,3.417-3.42h5.833a3.419,3.419,0,0,1,3.419,3.42h0A3.419,3.419,0,0,1,519.459,225.461Z" transform="translate(-510.209 -177.361)"/></g></g></g><g transform="translate(0 254.213)"><g transform="translate(133.495 137.279)"><rect class="g" width="220.65" height="12.061" rx="2.317"/></g><path class="u" d="M651.585,419.908H457.619a12.537,12.537,0,0,1-11.782-8.25L400.611,287.4a12.538,12.538,0,0,1,11.782-16.828H606.356a12.541,12.541,0,0,1,11.782,8.25l45.229,124.265A12.538,12.538,0,0,1,651.585,419.908Z" transform="translate(-399.843 -270.568)"/><path class="h" d="M403.363,271.389c.729,73.444,99.091,132.847,220.335,132.847,11.888,0,23.55-.578,34.926-1.677L613.586,278.818a12.541,12.541,0,0,0-11.782-8.25H407.84A12.522,12.522,0,0,0,403.363,271.389Z" transform="translate(-395.291 -270.568)"/><path class="v" d="M479.156,310.327a14.681,14.681,0,1,1-14.681-14.681A14.68,14.68,0,0,1,479.156,310.327Z" transform="translate(-335.23 -238.128)"/></g></g><g transform="translate(816.896 127.868)"><path class="k" d="M560.046,138.012a34.631,34.631,0,1,1,6.651,54.167,5.125,5.125,0,0,0-4.108-.5l-8.757,2.605a.875.875,0,0,1-1.089-1.089l2.605-8.757a5.151,5.151,0,0,0-.5-4.122A34.632,34.632,0,0,1,560.046,138.012Z" transform="translate(-549.91 -127.868)"/><g transform="translate(9.799 29.036)"><circle class="m" cx="5.591" cy="5.591" r="5.591"/><circle class="m" cx="5.591" cy="5.591" r="5.591" transform="translate(19.209)"/><circle class="m" cx="5.591" cy="5.591" r="5.591" transform="translate(38.417)"/></g></g></g></svg>